<?xml version="1.0" encoding="UTF-8" standalone="no"?>
<!DOCTYPE svg PUBLIC "-//W3C//DTD SVG 1.1//EN" "http://www.w3.org/Graphics/SVG/1.1/DTD/svg11.dtd">
<svg width="100%" height="100%" viewBox="0 0 3544 3544" version="1.1" xmlns="http://www.w3.org/2000/svg" xmlns:xlink="http://www.w3.org/1999/xlink" xml:space="preserve" xmlns:serif="http://www.serif.com/" style="fill-rule:evenodd;clip-rule:evenodd;stroke-linejoin:round;stroke-miterlimit:2;">
    <g transform="matrix(1.58556,0,0,1.58556,-1009.32,-194.708)">
        <g transform="matrix(0,-4.16667,-4.16667,0,1753.94,126.525)">
            <g id="Layer-1" serif:id="Layer 1">
                <path d="M-267.274,-267.274C-414.885,-267.274 -534.548,-147.611 -534.548,0C-534.548,147.611 -414.885,267.274 -267.274,267.274C-119.663,267.274 0,147.611 0,0C0,-147.611 -119.663,-267.274 -267.274,-267.274" style="fill:rgb(237,28,36);fill-rule:nonzero;"/>
            </g>
        </g>
        <g id="Layer-2" serif:id="Layer 2" transform="matrix(4.16667,0,0,4.16667,0,0)">
            <g transform="matrix(1,0,0,1,379.204,431.655)">
                <path d="M0,-0.703C-0.055,39.624 -24.749,69.514 -61.768,74.428C-76.604,76.397 -90.645,70.237 -102.431,60.842C-141.155,29.973 -139.801,-28.992 -100.323,-58.637C-75.736,-77.1 -43.937,-74.033 -21.952,-51.672C-7.31,-36.779 -0.423,-18.64 0,-0.703" style="fill:white;fill-rule:nonzero;"/>
            </g>
            <g transform="matrix(1,0,0,1,539.346,261.688)">
                <path d="M0,72.467C0,72.467 1.306,135.723 -15.67,170.857C-35.037,210.936 -57.162,225.221 -93.113,236.115C-123.503,245.325 -182.353,244.663 -182.353,244.663C-182.353,244.663 -167.532,237.767 -154.646,208.633C-145.249,187.389 -146.975,145.8 -146.975,145.8L-146.975,-172.858L0,-172.858L0,72.467Z" style="fill:white;fill-rule:nonzero;"/>
            </g>
        </g>
    </g>
</svg>
